<svg width="128" height="128" viewBox="0 0 128 128" fill="none" xmlns="http://www.w3.org/2000/svg">
    <rect width="128" height="128" rx="24" fill="#1E1E1E"/>
    <path d="M64 25C42.4609 25 25 42.4609 25 64C25 85.5391 42.4609 103 64 103C85.5391 103 103 85.5391 103 64C103 42.4609 85.5391 25 64 25ZM64 96.25C46.1895 96.25 31.75 81.8105 31.75 64C31.75 46.1895 46.1895 31.75 64 31.75C81.8105 31.75 96.25 46.1895 96.25 64C96.25 81.8105 81.8105 96.25 64 96.25Z" fill="#569CD6"/>
    <path d="M64 42C51.85 42 42 51.85 42 64C42 76.15 51.85 86 64 86C76.15 86 86 76.15 86 64C86 51.85 76.15 42 64 42ZM54 64C54 58.48 58.48 54 64 54C69.52 54 74 58.48 74 64C74 69.52 69.52 74 64 74C58.48 74 54 69.52 54 64Z" fill="#4CAF50"/>
    <rect x="61" y="35" width="6" height="12" rx="1" fill="#569CD6"/>
    <rect x="61" y="81" width="6" height="12" rx="1" fill="#569CD6"/>
    <rect x="35" y="61" width="12" height="6" rx="1" fill="#569CD6"/>
    <rect x="81" y="61" width="12" height="6" rx="1" fill="#569CD6"/>
    <circle cx="64" cy="64" r="4" fill="#FFFFFF"/>
</svg>
